<mxfile host="app.diagrams.net" modified="2021-06-04T13:54:15.916Z" agent="5.0 (Windows NT 10.0; Win64; x64) AppleWebKit/537.36 (KHTML, like Gecko) Chrome/91.0.4472.77 Safari/537.36" etag="pHBt0LiA8WgQ3TEZpn40" version="14.1.9" type="github">
  <diagram id="C5RBs43oDa-KdzZeNtuy" name="Page-1">
    <mxGraphModel dx="1185" dy="635" grid="1" gridSize="10" guides="1" tooltips="1" connect="1" arrows="1" fold="1" page="1" pageScale="1" pageWidth="827" pageHeight="1169" math="0" shadow="0">
      <root>
        <mxCell id="WIyWlLk6GJQsqaUBKTNV-0" />
        <mxCell id="WIyWlLk6GJQsqaUBKTNV-1" parent="WIyWlLk6GJQsqaUBKTNV-0" />
        <mxCell id="mUU1lytDgRaQoyZPtHUI-0" value="Комната" style="rounded=0;whiteSpace=wrap;html=1;fillColor=#A9C4EB;" vertex="1" parent="WIyWlLk6GJQsqaUBKTNV-1">
          <mxGeometry x="40" y="160" width="280" height="30" as="geometry" />
        </mxCell>
        <mxCell id="mUU1lytDgRaQoyZPtHUI-2" value="id " style="text;align=left;verticalAlign=top;spacingLeft=4;spacingRight=4;overflow=hidden;rotatable=0;points=[[0,0.5],[1,0.5]];portConstraint=eastwest;" vertex="1" parent="WIyWlLk6GJQsqaUBKTNV-1">
          <mxGeometry x="60" y="205" width="20" height="26" as="geometry" />
        </mxCell>
        <mxCell id="mUU1lytDgRaQoyZPtHUI-4" value="уникальная &#xa;ссылка" style="text;align=left;verticalAlign=top;spacingLeft=4;spacingRight=4;overflow=hidden;rotatable=0;points=[[0,0.5],[1,0.5]];portConstraint=eastwest;rounded=0;shadow=0;html=0;" vertex="1" parent="WIyWlLk6GJQsqaUBKTNV-1">
          <mxGeometry x="120" y="199" width="80" height="38" as="geometry" />
        </mxCell>
        <mxCell id="mUU1lytDgRaQoyZPtHUI-5" value="обьем комнаты &#xa;(кол-во человек)" style="text;align=left;verticalAlign=top;spacingLeft=4;spacingRight=4;overflow=hidden;rotatable=0;points=[[0,0.5],[1,0.5]];portConstraint=eastwest;rounded=0;shadow=0;html=0;" vertex="1" parent="WIyWlLk6GJQsqaUBKTNV-1">
          <mxGeometry x="210" y="197" width="110" height="42" as="geometry" />
        </mxCell>
        <mxCell id="mUU1lytDgRaQoyZPtHUI-7" value="" style="rounded=0;whiteSpace=wrap;html=1;fillColor=none;" vertex="1" parent="WIyWlLk6GJQsqaUBKTNV-1">
          <mxGeometry x="100" y="190" width="100" height="50" as="geometry" />
        </mxCell>
        <mxCell id="mUU1lytDgRaQoyZPtHUI-10" value="" style="rounded=0;whiteSpace=wrap;html=1;fillColor=none;" vertex="1" parent="WIyWlLk6GJQsqaUBKTNV-1">
          <mxGeometry x="40" y="190" width="60" height="50" as="geometry" />
        </mxCell>
        <mxCell id="mUU1lytDgRaQoyZPtHUI-12" value="" style="rounded=0;whiteSpace=wrap;html=1;fillColor=none;" vertex="1" parent="WIyWlLk6GJQsqaUBKTNV-1">
          <mxGeometry x="200" y="190" width="120" height="50" as="geometry" />
        </mxCell>
        <mxCell id="mUU1lytDgRaQoyZPtHUI-13" value="Пользователь" style="rounded=0;whiteSpace=wrap;html=1;fillColor=#A9C4EB;" vertex="1" parent="WIyWlLk6GJQsqaUBKTNV-1">
          <mxGeometry x="40" y="290" width="630" height="30" as="geometry" />
        </mxCell>
        <mxCell id="mUU1lytDgRaQoyZPtHUI-14" value="никнейм" style="rounded=0;whiteSpace=wrap;html=1;fillColor=none;" vertex="1" parent="WIyWlLk6GJQsqaUBKTNV-1">
          <mxGeometry x="100" y="320" width="100" height="40" as="geometry" />
        </mxCell>
        <mxCell id="mUU1lytDgRaQoyZPtHUI-15" value="id" style="rounded=0;whiteSpace=wrap;html=1;fillColor=none;" vertex="1" parent="WIyWlLk6GJQsqaUBKTNV-1">
          <mxGeometry x="40" y="320" width="60" height="40" as="geometry" />
        </mxCell>
        <mxCell id="mUU1lytDgRaQoyZPtHUI-16" value="капитан (boolean)" style="rounded=0;whiteSpace=wrap;html=1;fillColor=none;" vertex="1" parent="WIyWlLk6GJQsqaUBKTNV-1">
          <mxGeometry x="200" y="320" width="130" height="40" as="geometry" />
        </mxCell>
        <mxCell id="mUU1lytDgRaQoyZPtHUI-17" value="время&amp;nbsp;&lt;br&gt;присоединения" style="rounded=0;whiteSpace=wrap;html=1;fillColor=none;" vertex="1" parent="WIyWlLk6GJQsqaUBKTNV-1">
          <mxGeometry x="410" y="320" width="140" height="40" as="geometry" />
        </mxCell>
        <mxCell id="mUU1lytDgRaQoyZPtHUI-18" value="команда" style="rounded=0;whiteSpace=wrap;html=1;fillColor=none;" vertex="1" parent="WIyWlLk6GJQsqaUBKTNV-1">
          <mxGeometry x="330" y="320" width="80" height="40" as="geometry" />
        </mxCell>
        <mxCell id="mUU1lytDgRaQoyZPtHUI-21" value="Команда" style="rounded=0;whiteSpace=wrap;html=1;fillColor=#A9C4EB;" vertex="1" parent="WIyWlLk6GJQsqaUBKTNV-1">
          <mxGeometry x="40" y="430" width="430" height="30" as="geometry" />
        </mxCell>
        <mxCell id="mUU1lytDgRaQoyZPtHUI-26" value="название" style="rounded=0;whiteSpace=wrap;html=1;fillColor=none;" vertex="1" parent="WIyWlLk6GJQsqaUBKTNV-1">
          <mxGeometry x="100" y="460" width="100" height="40" as="geometry" />
        </mxCell>
        <mxCell id="mUU1lytDgRaQoyZPtHUI-31" style="edgeStyle=orthogonalEdgeStyle;rounded=0;orthogonalLoop=1;jettySize=auto;html=1;" edge="1" parent="WIyWlLk6GJQsqaUBKTNV-1" source="mUU1lytDgRaQoyZPtHUI-27" target="mUU1lytDgRaQoyZPtHUI-18">
          <mxGeometry relative="1" as="geometry">
            <Array as="points">
              <mxPoint x="20" y="490" />
              <mxPoint x="20" y="390" />
              <mxPoint x="370" y="390" />
            </Array>
          </mxGeometry>
        </mxCell>
        <mxCell id="mUU1lytDgRaQoyZPtHUI-27" value="id" style="rounded=0;whiteSpace=wrap;html=1;fillColor=none;" vertex="1" parent="WIyWlLk6GJQsqaUBKTNV-1">
          <mxGeometry x="40" y="460" width="60" height="40" as="geometry" />
        </mxCell>
        <mxCell id="mUU1lytDgRaQoyZPtHUI-28" value="количество набранных очков" style="rounded=0;whiteSpace=wrap;html=1;fillColor=none;" vertex="1" parent="WIyWlLk6GJQsqaUBKTNV-1">
          <mxGeometry x="200" y="460" width="150" height="40" as="geometry" />
        </mxCell>
        <mxCell id="mUU1lytDgRaQoyZPtHUI-29" value="время&amp;nbsp;&lt;br&gt;создания" style="rounded=0;whiteSpace=wrap;html=1;fillColor=none;" vertex="1" parent="WIyWlLk6GJQsqaUBKTNV-1">
          <mxGeometry x="350" y="460" width="120" height="40" as="geometry" />
        </mxCell>
        <mxCell id="mUU1lytDgRaQoyZPtHUI-32" value="Сообщения" style="rounded=0;whiteSpace=wrap;html=1;fillColor=#A9C4EB;" vertex="1" parent="WIyWlLk6GJQsqaUBKTNV-1">
          <mxGeometry x="40" y="565" width="510" height="30" as="geometry" />
        </mxCell>
        <mxCell id="mUU1lytDgRaQoyZPtHUI-33" value="текст" style="rounded=0;whiteSpace=wrap;html=1;fillColor=none;" vertex="1" parent="WIyWlLk6GJQsqaUBKTNV-1">
          <mxGeometry x="100" y="595" width="100" height="45" as="geometry" />
        </mxCell>
        <mxCell id="mUU1lytDgRaQoyZPtHUI-34" value="id" style="rounded=0;whiteSpace=wrap;html=1;fillColor=none;" vertex="1" parent="WIyWlLk6GJQsqaUBKTNV-1">
          <mxGeometry x="40" y="595" width="60" height="45" as="geometry" />
        </mxCell>
        <mxCell id="mUU1lytDgRaQoyZPtHUI-38" style="edgeStyle=orthogonalEdgeStyle;rounded=0;orthogonalLoop=1;jettySize=auto;html=1;" edge="1" parent="WIyWlLk6GJQsqaUBKTNV-1" source="mUU1lytDgRaQoyZPtHUI-35" target="mUU1lytDgRaQoyZPtHUI-15">
          <mxGeometry relative="1" as="geometry">
            <Array as="points">
              <mxPoint x="265" y="660" />
              <mxPoint x="10" y="660" />
              <mxPoint x="10" y="350" />
            </Array>
          </mxGeometry>
        </mxCell>
        <mxCell id="mUU1lytDgRaQoyZPtHUI-35" value="user id" style="rounded=0;whiteSpace=wrap;html=1;fillColor=none;" vertex="1" parent="WIyWlLk6GJQsqaUBKTNV-1">
          <mxGeometry x="200" y="595" width="130" height="45" as="geometry" />
        </mxCell>
        <mxCell id="mUU1lytDgRaQoyZPtHUI-36" value="время&amp;nbsp;&lt;br&gt;написания" style="rounded=0;whiteSpace=wrap;html=1;fillColor=none;" vertex="1" parent="WIyWlLk6GJQsqaUBKTNV-1">
          <mxGeometry x="410" y="595" width="140" height="45" as="geometry" />
        </mxCell>
        <mxCell id="mUU1lytDgRaQoyZPtHUI-37" value="связь" style="rounded=0;whiteSpace=wrap;html=1;fillColor=none;" vertex="1" parent="WIyWlLk6GJQsqaUBKTNV-1">
          <mxGeometry x="330" y="595" width="80" height="45" as="geometry" />
        </mxCell>
        <mxCell id="mUU1lytDgRaQoyZPtHUI-41" style="edgeStyle=orthogonalEdgeStyle;rounded=0;orthogonalLoop=1;jettySize=auto;html=1;" edge="1" parent="WIyWlLk6GJQsqaUBKTNV-1" source="mUU1lytDgRaQoyZPtHUI-40" target="mUU1lytDgRaQoyZPtHUI-10">
          <mxGeometry relative="1" as="geometry">
            <Array as="points">
              <mxPoint x="610" y="390" />
              <mxPoint x="720" y="390" />
              <mxPoint x="720" y="270" />
              <mxPoint x="70" y="270" />
            </Array>
          </mxGeometry>
        </mxCell>
        <mxCell id="mUU1lytDgRaQoyZPtHUI-40" value="комната" style="rounded=0;whiteSpace=wrap;html=1;fillColor=none;" vertex="1" parent="WIyWlLk6GJQsqaUBKTNV-1">
          <mxGeometry x="550" y="320" width="120" height="40" as="geometry" />
        </mxCell>
      </root>
    </mxGraphModel>
  </diagram>
</mxfile>
